<svg width="1920" height="6358" viewBox="0 0 1920 6358" fill="none" xmlns="http://www.w3.org/2000/svg">
<g clip-path="url(#clip0_364_338)">
<g filter="url(#filter0_f_364_338)">
<path d="M-464.62 2337.5C190.577 2091.15 2240.41 2720.86 2011.58 2820.38C1871.99 2881.09 1061.1 2840.85 579.761 3023.96C272.061 3141.01 239.491 3440.48 144.383 3618.32C-99.5035 4074.35 -1125.28 2585.9 -464.62 2337.5Z" fill="#E8598A" fill-opacity="0.55"/>
</g>
<g filter="url(#filter1_f_364_338)">
<path d="M-1281.34 5915.24C-1387.91 5663.67 562.963 4668.26 622.182 4754.11C658.307 4806.48 1859.16 4307.28 1940.93 4491.77C1993.2 4609.71 261.735 5571.88 508.957 5587.25C1142.91 5626.68 -1173.88 6168.9 -1281.34 5915.24Z" fill="#E49EF3" fill-opacity="0.75"/>
</g>
<g filter="url(#filter2_f_364_338)">
<path d="M2695.5 6028.92C2454.39 6273.75 600.305 5841.44 673.922 5744.39C718.83 5685.19 -295.403 5336.99 -119.948 5155.3C-7.78566 5039.16 1725.86 5365.94 1649.29 5208.83C1452.92 4805.95 2938.63 5782.04 2695.5 6028.92Z" fill="#FFB8F4" fill-opacity="0.8"/>
</g>
<g filter="url(#filter3_f_364_338)">
<ellipse cx="1302.11" cy="844.914" rx="560.804" ry="600.567" fill="#F9A7FC"/>
</g>
<g filter="url(#filter4_f_364_338)">
<path d="M1811.15 801.34C1588.32 1172.95 172.146 1036.73 245.191 893.368C289.75 805.91 893.762 963.479 1056.71 688.331C1160.87 512.439 1706.68 386.554 1688.7 189.526C1642.57 -315.711 2035.84 426.63 1811.15 801.34Z" fill="#FFFFC5" fill-opacity="0.9"/>
</g>
<g filter="url(#filter5_f_364_338)">
<path d="M2006.73 3282.84C1817.73 3492.08 -30.1857 3280.22 20.5735 3201.49C51.5382 3153.47 373.464 3309.65 509.903 3155.03C597.124 3056.19 1008.18 3107.95 874.957 3018.09C533.319 2787.66 2197.32 3071.84 2006.73 3282.84Z" fill="#FFFBC6" fill-opacity="0.9"/>
</g>
<g filter="url(#filter6_f_364_338)">
<path d="M6.0496 -289.154C582.351 -383.565 2125.01 598.923 1921.23 644.203C1796.91 671.825 1147.83 473.743 724.056 545.047C453.155 590.629 371.111 857.409 261.042 1000.76C-21.2068 1368.35 -575.059 -193.955 6.0496 -289.154Z" fill="#FF1464" fill-opacity="0.48"/>
</g>
</g>
<defs>
<filter id="filter0_f_364_338" x="-1103.03" y="1860.77" width="3552.34" height="2263.83" filterUnits="userSpaceOnUse" color-interpolation-filters="sRGB">
<feFlood flood-opacity="0" result="BackgroundImageFix"/>
<feBlend mode="normal" in="SourceGraphic" in2="BackgroundImageFix" result="shape"/>
<feGaussianBlur stdDeviation="210" result="effect1_foregroundBlur_364_338"/>
</filter>
<filter id="filter1_f_364_338" x="-1705.55" y="4030.65" width="4067.64" height="2371.89" filterUnits="userSpaceOnUse" color-interpolation-filters="sRGB">
<feFlood flood-opacity="0" result="BackgroundImageFix"/>
<feBlend mode="normal" in="SourceGraphic" in2="BackgroundImageFix" result="shape"/>
<feGaussianBlur stdDeviation="210" result="effect1_foregroundBlur_364_338"/>
</filter>
<filter id="filter2_f_364_338" x="-560.367" y="4692.54" width="3702.84" height="1830.45" filterUnits="userSpaceOnUse" color-interpolation-filters="sRGB">
<feFlood flood-opacity="0" result="BackgroundImageFix"/>
<feBlend mode="normal" in="SourceGraphic" in2="BackgroundImageFix" result="shape"/>
<feGaussianBlur stdDeviation="210" result="effect1_foregroundBlur_364_338"/>
</filter>
<filter id="filter3_f_364_338" x="121.309" y="-375.653" width="2361.61" height="2441.13" filterUnits="userSpaceOnUse" color-interpolation-filters="sRGB">
<feFlood flood-opacity="0" result="BackgroundImageFix"/>
<feBlend mode="normal" in="SourceGraphic" in2="BackgroundImageFix" result="shape"/>
<feGaussianBlur stdDeviation="310" result="effect1_foregroundBlur_364_338"/>
</filter>
<filter id="filter4_f_364_338" x="-177.537" y="-400.992" width="2478.54" height="1861.81" filterUnits="userSpaceOnUse" color-interpolation-filters="sRGB">
<feFlood flood-opacity="0" result="BackgroundImageFix"/>
<feBlend mode="normal" in="SourceGraphic" in2="BackgroundImageFix" result="shape"/>
<feGaussianBlur stdDeviation="210" result="effect1_foregroundBlur_364_338"/>
</filter>
<filter id="filter5_f_364_338" x="-400.453" y="2512.38" width="2842.45" height="1280.17" filterUnits="userSpaceOnUse" color-interpolation-filters="sRGB">
<feFlood flood-opacity="0" result="BackgroundImageFix"/>
<feBlend mode="normal" in="SourceGraphic" in2="BackgroundImageFix" result="shape"/>
<feGaussianBlur stdDeviation="210" result="effect1_foregroundBlur_364_338"/>
</filter>
<filter id="filter6_f_364_338" x="-669.246" y="-715.543" width="3028.88" height="2192.19" filterUnits="userSpaceOnUse" color-interpolation-filters="sRGB">
<feFlood flood-opacity="0" result="BackgroundImageFix"/>
<feBlend mode="normal" in="SourceGraphic" in2="BackgroundImageFix" result="shape"/>
<feGaussianBlur stdDeviation="210" result="effect1_foregroundBlur_364_338"/>
</filter>
<clipPath id="clip0_364_338">
<rect width="1920" height="6358" fill="white"/>
</clipPath>
</defs>
</svg>
