<svg width="2786" height="7058" viewBox="0 0 2786 7058" fill="none" xmlns="http://www.w3.org/2000/svg">
<g clip-path="url(#clip0_360_567)">
<g filter="url(#filter0_f_360_567)">
<path d="M68.6518 2840.39C708.848 2607.14 2721.25 3208.07 2497.77 3302.34C2361.42 3359.85 1566.76 3320.59 1096.46 3493.98C795.817 3604.81 765.944 3889.33 673.971 4058.19C438.144 4491.21 -576.884 3075.59 68.6518 2840.39Z" fill="#E8598A" fill-opacity="0.55"/>
<path d="M171.057 6208.47C126.889 5753.54 1481.96 4880.88 1511.76 5045.07C1529.94 5145.24 2352.97 4794.57 2387.7 5129.61C2409.89 5343.78 1199.54 6247.58 1357.45 6369.49C1762.37 6682.07 215.592 6667.19 171.057 6208.47Z" fill="#E49EF3" fill-opacity="0.75"/>
<path d="M3131.32 6478.81C2711.94 6808.9 958.656 6560.32 1100.87 6432.7C1187.63 6354.85 299.552 6084.39 606.973 5839.94C803.495 5683.68 2492.12 5822.89 2508.22 5644.98C2549.55 5188.77 3554.2 6145.98 3131.32 6478.81Z" fill="#FFB8F4" fill-opacity="0.75"/>
<path d="M2645 917.992C2645 1485.75 2195.94 1946 1642 1946C1088.07 1946 639 1485.75 639 917.992C639 350.251 1088.07 -110 1642 -110C2195.94 -110 2645 350.251 2645 917.992Z" fill="#F9A7FC" fill-opacity="0.55"/>
<path d="M2319.76 962.711C2024.67 1326.52 364.626 1334.76 463.217 1195.63C523.36 1110.76 1222.81 1198.97 1438.88 929.805C1577.02 757.725 2232.2 590.028 2227.95 410.011C2217.07 -51.6142 2617.31 595.878 2319.76 962.711Z" fill="#FFFFC5" fill-opacity="0.75"/>
<path d="M2709.97 3996.05C2383.31 4424.33 363.109 4155.54 462.55 3996.05C523.212 3898.76 813.141 4180.99 1050.82 3864.79C1202.75 3662.65 1649.72 3731.59 1542.85 3564.99C1268.78 3137.81 3039.38 3564.2 2709.97 3996.05Z" fill="#FFFBC6" fill-opacity="0.8"/>
<path d="M156.255 -648.542C932.216 -830.382 2861.05 320.069 2585.23 400.143C2417 448.967 1579.57 250.294 1008.76 386.507C643.86 473.574 502.983 835.244 339.739 1036.09C-78.8709 1551.08 -626.18 -465.185 156.255 -648.542Z" fill="#FF1464" fill-opacity="0.5"/>
</g>
</g>
<defs>
<filter id="filter0_f_360_567" x="-660" y="-1088" width="4315" height="8151" filterUnits="userSpaceOnUse" color-interpolation-filters="sRGB">
<feFlood flood-opacity="0" result="BackgroundImageFix"/>
<feBlend mode="normal" in="SourceGraphic" in2="BackgroundImageFix" result="shape"/>
<feGaussianBlur stdDeviation="210" result="effect1_foregroundBlur_360_567"/>
</filter>
<clipPath id="clip0_360_567">
<rect width="2786" height="7058" fill="white"/>
</clipPath>
</defs>
</svg>
