<svg width="2786" height="7390" viewBox="0 0 2786 7390" fill="none" xmlns="http://www.w3.org/2000/svg">
<g filter="url(#filter0_f_355_332)">
<path d="M657.11 3037.39C981.784 2869.37 2002.37 3302.25 1889.03 3370.16C1819.88 3411.59 1416.87 3383.31 1178.36 3508.21C1025.89 3588.05 1010.74 3793 964.096 3914.64C844.497 4226.57 329.728 3206.82 657.11 3037.39Z" fill="#E8598A" fill-opacity="0.7"/>
<path d="M420.876 6285.1C392.48 5948 1263.67 5301.38 1282.83 5423.04C1294.52 5497.26 1823.65 5237.42 1845.98 5485.68C1860.25 5644.38 1082.1 6314.08 1183.62 6404.41C1443.95 6636.03 449.508 6625 420.876 6285.1Z" fill="#E49EF3"/>
<path d="M2299.96 6590.57C2034.49 6828.81 924.669 6649.4 1014.69 6557.29C1069.61 6501.1 507.458 6305.9 702.055 6129.47C826.453 6016.69 1895.35 6117.16 1905.54 5988.76C1931.7 5659.49 2567.64 6350.35 2299.96 6590.57Z" fill="#FFB8F4"/>
<path d="M2107.71 1430.8C2107.71 1740.53 1856.63 1991.61 1546.91 1991.61C1237.19 1991.61 986.105 1740.53 986.105 1430.8C986.105 1121.08 1237.19 869.999 1546.91 869.999C1856.63 869.999 2107.71 1121.08 2107.71 1430.8Z" fill="#F9A7FC"/>
<path d="M1845.57 1517.22C1641.57 1762.89 493.947 1768.45 562.105 1674.5C603.683 1617.19 1087.23 1676.76 1236.6 1495C1332.1 1378.8 1785.04 1265.56 1782.1 1144C1774.58 832.28 2051.27 1269.51 1845.57 1517.22Z" fill="#FFFFC5"/>
<path d="M1912.97 3891.22C1771.78 4204.29 898.594 4007.81 941.575 3891.22C967.795 3820.1 1093.11 4026.41 1195.84 3795.27C1261.51 3647.51 1454.7 3697.9 1408.51 3576.12C1290.05 3263.85 2055.35 3575.54 1912.97 3891.22Z" fill="#FFFBC6"/>
<path d="M653.18 476.425C958.513 382.943 1717.49 974.375 1608.96 1015.54C1542.76 1040.64 1213.24 938.505 988.633 1008.53C845.048 1053.29 789.614 1239.22 725.379 1342.47C560.66 1607.22 345.299 570.686 653.18 476.425Z" fill="#FF1464" fill-opacity="0.6"/>
</g>
<defs>
<filter id="filter0_f_355_332" x="0.196289" y="0" width="2785.39" height="7390" filterUnits="userSpaceOnUse" color-interpolation-filters="sRGB">
<feFlood flood-opacity="0" result="BackgroundImageFix"/>
<feBlend mode="normal" in="SourceGraphic" in2="BackgroundImageFix" result="shape"/>
<feGaussianBlur stdDeviation="210" result="effect1_foregroundBlur_355_332"/>
</filter>
</defs>
</svg>
