<svg width="2560" height="6358" viewBox="0 0 2560 6358" fill="none" xmlns="http://www.w3.org/2000/svg">
<g clip-path="url(#clip0_357_335)">
<rect width="2560" height="6358" fill="white"/>
<g filter="url(#filter0_f_357_335)">
<path d="M-344.974 2203.28C675.078 2001.41 3878.27 2519.91 3522.13 2601.49C3304.87 2651.25 2039.5 2617.66 1290.14 2767.71C811.108 2863.63 762.84 3109.54 615.975 3255.52C239.37 3629.86 -1373.54 2406.83 -344.974 2203.28Z" fill="#E8598A" fill-opacity="0.7"/>
</g>
<g filter="url(#filter1_f_357_335)">
<path d="M-1680.09 5151.72C-1778.95 4747.79 1670.37 3964.35 1741.09 4110.05C1784.23 4198.93 3874.21 3882.44 3952.56 4179.91C4002.64 4370.08 918.208 5180.32 1313.88 5287.68C2328.52 5562.99 -1580.41 5559.02 -1680.09 5151.72Z" fill="#E49EF3"/>
</g>
<g filter="url(#filter2_f_357_335)">
<path d="M4813.8 5549.49C3980.24 5774.52 495.389 5605.05 778.064 5518.05C950.504 5464.97 -814.653 5280.6 -203.621 5113.95C186.99 5007.42 3543.31 5102.32 3575.34 4981.03C3657.46 4670.02 5654.31 5322.58 4813.8 5549.49Z" fill="#FFB8F4"/>
</g>
<g filter="url(#filter3_f_357_335)">
<circle cx="1791.72" cy="731.792" r="560.804" fill="#F9A7FC"/>
</g>
<g filter="url(#filter4_f_357_335)">
<path d="M2180.76 971.24C1957.94 1318.25 541.762 1191.05 614.807 1057.18C659.366 975.508 1263.38 1122.64 1426.32 865.714C1530.49 701.468 2076.3 583.917 2058.31 399.934C2012.19 -71.852 2405.45 621.339 2180.76 971.24Z" fill="#FFFFC5"/>
</g>
<g filter="url(#filter5_f_357_335)">
<path d="M4095.22 3192.76C3776.68 3580.94 85.6541 3146.7 165.444 3000.24C214.119 2910.9 887.6 3209.98 1116.63 2923.09C1263.05 2739.69 2085.28 2844.96 1800.12 2673.93C1068.88 2235.35 4416.41 2801.35 4095.22 3192.76Z" fill="#FFFBC6"/>
</g>
<g filter="url(#filter6_f_357_335)">
<path d="M340.131 -345.988C969.976 -447.201 2649.89 566.428 2427.12 614.587C2291.22 643.966 1583.33 441.383 1120.17 517.764C824.097 566.592 733.187 844.461 612.277 994.116C302.227 1377.88 -294.968 -243.931 340.131 -345.988Z" fill="#FF1464" fill-opacity="0.6"/>
</g>
</g>
<defs>
<filter id="filter0_f_357_335" x="-1102.81" y="1736.97" width="5072.43" height="2009.31" filterUnits="userSpaceOnUse" color-interpolation-filters="sRGB">
<feFlood flood-opacity="0" result="BackgroundImageFix"/>
<feBlend mode="normal" in="SourceGraphic" in2="BackgroundImageFix" result="shape"/>
<feGaussianBlur stdDeviation="210" result="effect1_foregroundBlur_357_335"/>
</filter>
<filter id="filter1_f_357_335" x="-2102.18" y="3629.33" width="6475.34" height="2269.05" filterUnits="userSpaceOnUse" color-interpolation-filters="sRGB">
<feFlood flood-opacity="0" result="BackgroundImageFix"/>
<feBlend mode="normal" in="SourceGraphic" in2="BackgroundImageFix" result="shape"/>
<feGaussianBlur stdDeviation="210" result="effect1_foregroundBlur_357_335"/>
</filter>
<filter id="filter2_f_357_335" x="-752.762" y="4478.56" width="6192.63" height="1602.86" filterUnits="userSpaceOnUse" color-interpolation-filters="sRGB">
<feFlood flood-opacity="0" result="BackgroundImageFix"/>
<feBlend mode="normal" in="SourceGraphic" in2="BackgroundImageFix" result="shape"/>
<feGaussianBlur stdDeviation="210" result="effect1_foregroundBlur_357_335"/>
</filter>
<filter id="filter3_f_357_335" x="610.921" y="-449.012" width="2361.61" height="2361.61" filterUnits="userSpaceOnUse" color-interpolation-filters="sRGB">
<feFlood flood-opacity="0" result="BackgroundImageFix"/>
<feBlend mode="normal" in="SourceGraphic" in2="BackgroundImageFix" result="shape"/>
<feGaussianBlur stdDeviation="310" result="effect1_foregroundBlur_357_335"/>
</filter>
<filter id="filter4_f_357_335" x="192.079" y="-179.294" width="2478.54" height="1794.16" filterUnits="userSpaceOnUse" color-interpolation-filters="sRGB">
<feFlood flood-opacity="0" result="BackgroundImageFix"/>
<feBlend mode="normal" in="SourceGraphic" in2="BackgroundImageFix" result="shape"/>
<feGaussianBlur stdDeviation="210" result="effect1_foregroundBlur_357_335"/>
</filter>
<filter id="filter5_f_357_335" x="-255.83" y="2094.82" width="4792.84" height="1675.27" filterUnits="userSpaceOnUse" color-interpolation-filters="sRGB">
<feFlood flood-opacity="0" result="BackgroundImageFix"/>
<feBlend mode="normal" in="SourceGraphic" in2="BackgroundImageFix" result="shape"/>
<feGaussianBlur stdDeviation="210" result="effect1_foregroundBlur_357_335"/>
</filter>
<filter id="filter6_f_357_335" x="-360.797" y="-773.088" width="3228.12" height="2245.84" filterUnits="userSpaceOnUse" color-interpolation-filters="sRGB">
<feFlood flood-opacity="0" result="BackgroundImageFix"/>
<feBlend mode="normal" in="SourceGraphic" in2="BackgroundImageFix" result="shape"/>
<feGaussianBlur stdDeviation="210" result="effect1_foregroundBlur_357_335"/>
</filter>
<clipPath id="clip0_357_335">
<rect width="2560" height="6358" fill="white"/>
</clipPath>
</defs>
</svg>
