<svg width="1280" height="1023" viewBox="0 0 1280 1023" fill="none" xmlns="http://www.w3.org/2000/svg">
<path fill-rule="evenodd" clip-rule="evenodd" d="M889.917 187.027C988.885 249.504 994.785 356.623 1008.97 455.821C1023.86 559.952 1058.47 674.18 970.856 753.109C876.477 838.13 721.259 853.377 578.292 843.798C423.268 833.411 259.013 802.348 174.209 699.733C86.2391 593.288 161.946 516.361 228.555 400.715C290.346 293.436 355.022 164.341 499.823 134.41C634.068 106.66 781.661 118.688 889.917 187.027Z" stroke="white" stroke-width="0.777042"/>
<path fill-rule="evenodd" clip-rule="evenodd" d="M1079.42 355.34C1116.03 450.919 1043.79 541.842 984.086 629.925C921.41 722.387 867.725 831.959 738.698 857.991C599.711 886.032 460.797 829.462 349.849 757.886C229.544 680.273 116.513 581.507 120.47 459.152C124.574 332.229 242.345 302.542 380.485 236.889C508.631 175.986 654.857 98.387 795.754 138.213C926.38 175.135 1039.38 250.791 1079.42 355.34Z" stroke="white" stroke-width="0.777042"/>
<path fill-rule="evenodd" clip-rule="evenodd" d="M1101.05 622.172C1048.4 712.998 917.865 743.834 799.125 779.038C674.48 815.992 542.243 870.471 423.449 823.067C295.485 772.004 238.537 657.395 215.19 546.023C189.874 425.26 187.765 292.374 293.353 202.48C402.882 109.23 516.282 148.045 675.153 170.404C822.529 191.145 997.495 208.724 1069.98 311.779C1137.17 407.322 1158.64 522.823 1101.05 622.172Z" stroke="white" stroke-width="0.777042"/>
<path d="M939.077 220.493C939.077 225.486 933.853 229.83 926.997 229.83C920.142 229.83 914.917 225.486 914.917 220.493C914.917 215.499 920.142 211.155 926.997 211.155C933.853 211.155 939.077 215.499 939.077 220.493Z" stroke="white" stroke-width="1.55408"/>
<path d="M153.508 559.324C153.508 564.318 148.283 568.661 141.427 568.661C134.572 568.661 129.347 564.318 129.347 559.324C129.347 554.331 134.572 549.987 141.427 549.987C148.283 549.987 153.508 554.331 153.508 559.324Z" stroke="white" stroke-width="1.55408"/>
<path d="M210.078 446.043C210.078 449.361 206.581 452.346 201.855 452.346C197.13 452.346 193.633 449.361 193.633 446.043C193.633 442.726 197.13 439.74 201.855 439.74C206.581 439.74 210.078 442.726 210.078 446.043Z" stroke="white" stroke-width="1.55408"/>
<path d="M221.651 314.05C221.651 315.972 219.592 317.825 216.642 317.825C213.692 317.825 211.633 315.972 211.633 314.05C211.633 312.129 213.692 310.276 216.642 310.276C219.592 310.276 221.651 312.129 221.651 314.05Z" stroke="white" stroke-width="1.55408"/>
<path d="M1023.93 261.962C1023.93 264.721 1021.01 267.253 1017 267.253C1012.98 267.253 1010.06 264.721 1010.06 261.962C1010.06 259.203 1012.98 256.67 1017 256.67C1021.01 256.67 1023.93 259.203 1023.93 261.962Z" stroke="white" stroke-width="1.55408"/>
<path d="M1037.74 569.201C1037.74 574.195 1032.52 578.539 1025.66 578.539C1018.81 578.539 1013.58 574.195 1013.58 569.201C1013.58 564.208 1018.81 559.864 1025.66 559.864C1032.52 559.864 1037.74 564.208 1037.74 569.201Z" stroke="white" stroke-width="1.55408"/>
<path d="M913.029 745.191C913.029 748.509 909.531 751.494 904.806 751.494C900.08 751.494 896.583 748.509 896.583 745.191C896.583 741.874 900.08 738.888 904.806 738.888C909.531 738.888 913.029 741.874 913.029 745.191Z" stroke="white" stroke-width="1.55408"/>
<path d="M1017.51 706.993C1017.51 710.311 1014.01 713.296 1009.28 713.296C1004.56 713.296 1001.06 710.311 1001.06 706.993C1001.06 703.675 1004.56 700.69 1009.28 700.69C1014.01 700.69 1017.51 703.675 1017.51 706.993Z" stroke="white" stroke-width="1.55408"/>
<path d="M820.455 829.141C820.455 830.783 818.685 832.41 816.09 832.41C813.494 832.41 811.724 830.783 811.724 829.141C811.724 827.499 813.494 825.872 816.09 825.872C818.685 825.872 820.455 827.499 820.455 829.141Z" stroke="white" stroke-width="1.55408"/>
<path d="M433.458 826.107C433.458 827.749 431.687 829.375 429.092 829.375C426.497 829.375 424.726 827.749 424.726 826.107C424.726 824.465 426.497 822.838 429.092 822.838C431.687 822.838 433.458 824.465 433.458 826.107Z" stroke="white" stroke-width="1.55408"/>
<path d="M292.027 710.802C292.027 714.679 287.954 718.117 282.518 718.117C277.083 718.117 273.009 714.679 273.009 710.802C273.009 706.926 277.083 703.488 282.518 703.488C287.954 703.488 292.027 706.926 292.027 710.802Z" stroke="white" stroke-width="1.55408"/>
<path d="M475.884 143.893C475.884 146.931 472.674 149.69 468.303 149.69C463.933 149.69 460.723 146.931 460.723 143.893C460.723 140.854 463.933 138.095 468.303 138.095C472.674 138.095 475.884 140.854 475.884 143.893Z" stroke="white" stroke-width="1.55408"/>
<path d="M734.312 126.698C734.312 129.736 731.103 132.495 726.732 132.495C722.362 132.495 719.152 129.736 719.152 126.698C719.152 123.66 722.362 120.901 726.732 120.901C731.103 120.901 734.312 123.66 734.312 126.698Z" stroke="white" stroke-width="1.55408"/>
<path d="M317.742 269.816C317.742 273.692 313.669 277.13 308.233 277.13C302.797 277.13 298.724 273.692 298.724 269.816C298.724 265.939 302.797 262.501 308.233 262.501C313.669 262.501 317.742 265.939 317.742 269.816Z" stroke="white" stroke-width="1.55408"/>
<path d="M576.172 154.007C576.172 155.37 574.689 156.77 572.449 156.77C570.209 156.77 568.726 155.37 568.726 154.007C568.726 152.644 570.209 151.244 572.449 151.244C574.689 151.244 576.172 152.644 576.172 154.007Z" stroke="white" stroke-width="1.55408"/>
<path d="M529.882 839.255C529.882 845.924 522.931 851.626 513.945 851.626C504.959 851.626 498.008 845.924 498.008 839.255C498.008 832.585 504.959 826.883 513.945 826.883C522.931 826.883 529.882 832.585 529.882 839.255Z" stroke="white" stroke-width="1.55408"/>
<path d="M921.077 706.994C921.077 710.312 917.58 713.297 912.854 713.297C908.129 713.297 904.632 710.312 904.632 706.994C904.632 703.676 908.129 700.691 912.854 700.691C917.58 700.691 921.077 703.676 921.077 706.994Z" stroke="white" stroke-width="1.55408"/>
</svg>
