<svg width="100" height="146" viewBox="0 0 100 146" fill="none" xmlns="http://www.w3.org/2000/svg">
<path d="M50.8308 52.7102L41.03 44.6232L38.928 47.6739L39.4578 51.4942C44.666 53.7107 50.8308 52.7102 50.8308 52.7102ZM33.5961 38.3965L31.8211 37.4287C31.8211 37.4287 30.1513 39.5875 29.0758 40.8468C27.9994 42.1053 30.3387 44.2361 30.3387 44.2361C30.3387 44.2361 30.929 41.7827 31.1148 41.3349C31.3006 40.8863 33.5961 38.3965 33.5961 38.3965ZM97.6414 127.782C96.7155 141.331 81.8738 149.342 69.8482 142.784C60.7437 137.819 57.424 126.464 62.5171 117.5C66.4479 110.581 69.7829 103.847 68.4378 102.964C60.9395 98.0452 48.3841 89.6113 44.8717 87.6954L28.249 78.6307C25.0959 76.9107 22.6852 74.115 21.4684 70.7645L8.10454 33.9819L1 2.26214C1 2.26214 2.75199 -1.63109 7.45355 4.25772C12.1551 10.1458 14.1304 20.9207 14.1304 20.9207C14.1304 20.9207 18.2854 11.9661 19.6412 11.0423C20.9962 10.1193 32.3639 2.04966 35.2721 2.11114C38.1795 2.17339 36.7254 9.55373 32.8507 12.9824C28.9767 16.4103 24.4832 20.1942 24.4832 20.1942L19.9844 33.5333L25.2471 28.3686C25.2471 28.3686 23.965 26.1461 24.7949 24.6591C25.6248 23.1721 27.3729 22.0472 30.0331 22.8047C31.167 23.1281 31.617 23.3049 31.7613 23.402C32.6795 22.7599 37.2667 19.6235 39.8416 19.288C42.7121 18.9138 52.7133 16.0566 54.1689 16.7117C55.6252 17.3667 55.4548 20.1836 50.9621 23.9668C46.4694 27.7515 40.6577 28.8757 40.6577 28.8757L42.9984 30.7065C42.9984 30.7065 55.507 25.6147 57.4409 26.669C59.3748 27.7241 58.8973 31.3426 55.5194 33.3792C52.1414 35.4157 50.3341 36.6469 50.3341 36.6469C50.3341 36.6469 65.0967 47.607 69.287 49.8918C73.4765 52.1766 85.5021 64.2761 87.684 68.6528C89.8659 73.0288 97.3996 85.8501 98.4989 90.2041C99.5822 94.4898 98.7293 111.867 97.6414 127.782Z" stroke="#091133" stroke-miterlimit="10" stroke-linecap="round" stroke-linejoin="round"/>
<path d="M51.1314 36.0282L45.3832 39.0483L40 47.0488L41.5524 58.5072C41.5524 58.5072 71.8823 70.9548 79 86.0675" stroke="#091133" stroke-miterlimit="10" stroke-linecap="round" stroke-linejoin="round"/>
<path d="M28 65.0508C28 65.0508 30.5188 43.0464 31.7967 40.7871C33.0747 38.5285 41.3574 31.0403 44 30.0232" stroke="#091133" stroke-miterlimit="10" stroke-linecap="round" stroke-linejoin="round"/>
<path d="M32 23.0176L25.3721 27.8859L19.8783 33.0703L18.3202 34.4928C17.4339 35.3013 16.9538 36.432 17.0035 37.5978L17.6543 53.0413" stroke="#091133" stroke-miterlimit="10" stroke-linecap="round" stroke-linejoin="round"/>
</svg>
