<svg width="100" height="146" viewBox="0 0 100 146" fill="none" xmlns="http://www.w3.org/2000/svg">
<path d="M49.1692 52.7102L58.97 44.6232L61.072 47.6739L60.5422 51.4942C55.334 53.7107 49.1692 52.7102 49.1692 52.7102ZM66.4039 38.3965L68.1789 37.4287C68.1789 37.4287 69.8487 39.5875 70.9242 40.8468C72.0006 42.1053 69.6613 44.2361 69.6613 44.2361C69.6613 44.2361 69.071 41.7827 68.8852 41.3349C68.6994 40.8863 66.4039 38.3965 66.4039 38.3965ZM2.3586 127.782C3.28448 141.331 18.1262 149.342 30.1518 142.784C39.2563 137.819 42.576 126.464 37.4829 117.5C33.5521 110.581 30.2171 103.847 31.5622 102.964C39.0605 98.0452 51.6159 89.6113 55.1283 87.6954L71.751 78.6307C74.9041 76.9107 77.3148 74.115 78.5316 70.7645L91.8955 33.9819L99 2.26214C99 2.26214 97.248 -1.63109 92.5465 4.25772C87.8449 10.1458 85.8696 20.9207 85.8696 20.9207C85.8696 20.9207 81.7146 11.9661 80.3588 11.0423C79.0038 10.1193 67.6361 2.04966 64.7279 2.11114C61.8205 2.17339 63.2746 9.55373 67.1493 12.9824C71.0233 16.4103 75.5168 20.1942 75.5168 20.1942L80.0156 33.5333L74.7529 28.3686C74.7529 28.3686 76.035 26.1461 75.2051 24.6591C74.3752 23.1721 72.6271 22.0472 69.9669 22.8047C68.833 23.1281 68.383 23.3049 68.2387 23.402C67.3205 22.7599 62.7333 19.6235 60.1584 19.288C57.2879 18.9138 47.2867 16.0566 45.8311 16.7117C44.3748 17.3667 44.5452 20.1836 49.0379 23.9668C53.5306 27.7515 59.3423 28.8757 59.3423 28.8757L57.0016 30.7065C57.0016 30.7065 44.493 25.6147 42.5591 26.669C40.6252 27.7241 41.1027 31.3426 44.4806 33.3792C47.8586 35.4157 49.6659 36.6469 49.6659 36.6469C49.6659 36.6469 34.9033 47.607 30.713 49.8918C26.5235 52.1766 14.4979 64.2761 12.316 68.6528C10.1341 73.0288 2.60044 85.8501 1.50106 90.2041C0.417797 94.4898 1.27074 111.867 2.3586 127.782Z" stroke="#091133" stroke-miterlimit="10" stroke-linecap="round" stroke-linejoin="round"/>
<path d="M49.5831 36.0282L55.4787 39.0483L61 47.0488L59.4078 58.5072C59.4078 58.5072 28.3003 70.9548 21 86.0675" stroke="#091133" stroke-miterlimit="10" stroke-linecap="round" stroke-linejoin="round"/>
<path d="M73 65.0508C73 65.0508 70.4812 43.0464 69.2033 40.7871C67.9253 38.5285 59.6426 31.0403 57 30.0232" stroke="#091133" stroke-miterlimit="10" stroke-linecap="round" stroke-linejoin="round"/>
<path d="M69 23.0176L75.186 27.8859L80.3136 33.0703L81.7678 34.4928C82.5951 35.3013 83.0431 36.432 82.9967 37.5978L82.3893 53.0413" stroke="#091133" stroke-miterlimit="10" stroke-linecap="round" stroke-linejoin="round"/>
</svg>
