<svg width="1372" height="437" viewBox="0 0 1372 437" fill="none" xmlns="http://www.w3.org/2000/svg">
<g opacity="0.3">
<path d="M92.4892 245.531L85.0954 234.227L61.2057 239.312L50.1618 244.075L50.8164 273.266L88.6469 294.883L118.377 309.243L128.397 300.408L146.993 280.039L169.177 256.337L226.627 231.272L268.488 230.216L320.722 235.665" stroke="white" stroke-opacity="0.53" stroke-width="3"/>
<path d="M332.43 269.597L273.925 288.07L305.612 320.525" stroke="white" stroke-opacity="0.53" stroke-width="3"/>
</g>
<path d="M101.748 202.679L98.8988 206.866L100.631 211.623L95.8855 210.165L91.998 213.355L91.9143 208.268L87.7801 205.483L92.4734 203.797L93.8059 198.885L96.7895 202.929L101.748 202.679Z" fill="white" fill-opacity="0.51"/>
<path d="M101.421 185.446L98.572 189.633L100.305 194.388L95.5584 192.931L91.6702 196.121L91.5875 191.034L87.4523 188.249L92.1462 186.563L93.4794 181.651L96.4627 185.696L101.421 185.446Z" fill="white" fill-opacity="0.51"/>
<path d="M76.7016 180.181L73.8517 184.368L75.5835 189.125L70.8387 187.666L66.9505 190.856L66.8672 185.77L62.7325 182.985L67.4265 181.298L68.7584 176.387L71.7423 180.432L76.7016 180.181Z" fill="white" fill-opacity="0.51"/>
<path d="M62.2758 180.875L59.4261 185.062L61.158 189.819L56.4126 188.361L52.5251 191.55L52.4414 186.464L48.3072 183.679L53.0005 181.993L54.3326 177.081L57.3165 181.125L62.2758 180.875Z" fill="white" fill-opacity="0.51"/>
<path d="M45.2599 215.59L42.4105 219.777L44.1427 224.534L39.3973 223.076L35.5091 226.266L35.426 221.179L31.2912 218.394L35.9851 216.708L37.3176 211.797L40.3012 215.841L45.2599 215.59Z" fill="white" fill-opacity="0.51"/>
<path d="M69.5521 257.99L66.7029 262.177L68.4353 266.933L63.6899 265.475L59.8018 268.665L59.7184 263.579L55.5842 260.794L60.2778 259.107L61.6103 254.196L64.5936 258.241L69.5521 257.99Z" fill="white" fill-opacity="0.51"/>
<path d="M88.0141 289.43L85.1641 293.618L86.8969 298.374L82.1512 296.915L78.2634 300.106L78.1804 295.019L74.0455 292.234L78.7391 290.547L80.0716 285.636L83.0548 289.681L88.0141 289.43Z" fill="white" fill-opacity="0.51"/>
<path d="M103.551 283.331L100.701 287.519L102.434 292.274L97.6883 290.816L93.8002 294.007L93.7174 288.92L89.5822 286.135L94.2761 284.448L95.6087 279.537L98.5919 283.582L103.551 283.331Z" fill="white" fill-opacity="0.51"/>
<path d="M170.468 250.729L167.618 254.917L169.35 259.673L164.605 258.215L160.717 261.405L160.633 256.318L156.499 253.533L161.192 251.847L162.525 246.936L165.509 250.98L170.468 250.729Z" fill="white" fill-opacity="0.51"/>
<path d="M239.565 248.094L236.715 252.282L238.448 257.038L233.702 255.58L229.814 258.77L229.73 253.683L225.596 250.899L230.29 249.212L231.622 244.3L234.606 248.345L239.565 248.094Z" fill="white" fill-opacity="0.51"/>
<path d="M279.857 267.191L277.007 271.378L278.74 276.134L273.994 274.676L270.106 277.866L270.022 272.78L265.888 269.994L270.582 268.308L271.914 263.397L274.898 267.441L279.857 267.191Z" fill="white" fill-opacity="0.51"/>
<path d="M349.392 273.418L346.542 277.606L348.274 282.362L343.529 280.904L339.641 284.094L339.558 279.008L335.423 276.222L340.116 274.536L341.449 269.625L344.432 273.669L349.392 273.418Z" fill="white" fill-opacity="0.51"/>
<path d="M327.33 297.959L324.481 302.146L326.213 306.902L321.468 305.444L317.58 308.634L317.497 303.548L313.362 300.763L318.055 299.076L319.388 294.165L322.372 298.21L327.33 297.959Z" fill="white" fill-opacity="0.51"/>
<path d="M294.11 318.259L291.261 322.446L292.993 327.203L288.248 325.744L284.36 328.935L284.276 323.848L280.142 321.063L284.836 319.376L286.167 314.465L289.151 318.509L294.11 318.259Z" fill="white" fill-opacity="0.51"/>
<g opacity="0.3">
<path d="M1014.31 337.734L1091.93 291.07L1112.99 234.359L1073.19 193.932L1183.32 190.186L1197.25 197.483L1205.82 218.448L1243.66 228.928L1288.29 316.715L1361.48 412.543" stroke="white" stroke-opacity="0.5" stroke-width="3"/>
<path d="M1178.26 343.928L1185.66 279.127L1243.66 228.928" stroke="white" stroke-opacity="0.5" stroke-width="3"/>
</g>
<path d="M1073.13 183.727L1076.16 190.18L1082.96 191.215L1078.04 196.238L1079.2 203.331L1073.13 199.983L1067.05 203.331L1068.21 196.238L1063.3 191.215L1070.09 190.18L1073.13 183.727Z" fill="white" fill-opacity="0.5"/>
<path d="M1183.26 180.388L1186.3 186.841L1193.09 187.876L1188.18 192.899L1189.34 199.992L1183.26 196.643L1177.19 199.992L1178.35 192.899L1173.43 187.876L1180.22 186.841L1183.26 180.388Z" fill="white" fill-opacity="0.5"/>
<path d="M1197.37 187.908L1200.41 194.363L1207.2 195.397L1202.29 200.421L1203.45 207.513L1197.37 204.165L1191.3 207.513L1192.46 200.421L1187.54 195.397L1194.33 194.363L1197.37 187.908Z" fill="white" fill-opacity="0.5"/>
<path d="M1207.2 208.548L1210.24 215.002L1217.03 216.037L1212.12 221.061L1213.28 228.152L1207.2 224.805L1201.13 228.152L1202.29 221.061L1197.37 216.037L1204.17 215.002L1207.2 208.548Z" fill="white" fill-opacity="0.5"/>
<path d="M1243.66 220.075L1246.7 226.528L1253.5 227.563L1248.58 232.586L1249.74 239.678L1243.66 236.331L1237.59 239.678L1238.75 232.586L1233.83 227.563L1240.63 226.528L1243.66 220.075Z" fill="white" fill-opacity="0.5"/>
<path d="M1185.51 270.191L1188.55 276.646L1195.34 277.681L1190.43 282.704L1191.59 289.796L1185.51 286.448L1179.44 289.796L1180.6 282.704L1175.68 277.681L1182.47 276.646L1185.51 270.191Z" fill="white" fill-opacity="0.5"/>
<path d="M1178.26 334.126L1181.29 340.58L1188.09 341.614L1183.17 346.637L1184.33 353.73L1178.26 350.381L1172.18 353.73L1173.34 346.637L1168.43 341.614L1175.22 340.58L1178.26 334.126Z" fill="white" fill-opacity="0.5"/>
<path d="M1288.21 306.234L1291.25 312.687L1298.04 313.722L1293.13 318.746L1294.29 325.839L1288.21 322.49L1282.14 325.839L1283.3 318.746L1278.38 313.722L1285.18 312.687L1288.21 306.234Z" fill="white" fill-opacity="0.5"/>
<path d="M1361.48 402.74L1364.52 409.194L1371.31 410.228L1366.39 415.251L1367.55 422.344L1361.48 418.996L1355.4 422.344L1356.56 415.251L1351.65 410.228L1358.44 409.194L1361.48 402.74Z" fill="white" fill-opacity="0.5"/>
<path d="M1112.42 224.304L1115.46 230.759L1122.25 231.793L1117.33 236.816L1118.49 243.909L1112.42 240.56L1106.34 243.909L1107.5 236.816L1102.59 231.793L1109.38 230.759L1112.42 224.304Z" fill="white" fill-opacity="0.5"/>
<path d="M1092.07 279.995L1095.11 286.448L1101.9 287.482L1096.99 292.505L1098.15 299.598L1092.07 296.249L1086 299.598L1087.16 292.505L1082.24 287.482L1089.03 286.448L1092.07 279.995Z" fill="white" fill-opacity="0.5"/>
<path d="M1065.33 296.915L1068.37 303.368L1075.16 304.403L1070.25 309.426L1071.41 316.519L1065.33 313.171L1059.26 316.519L1060.42 309.426L1055.5 304.403L1062.29 303.368L1065.33 296.915Z" fill="white" fill-opacity="0.5"/>
<path d="M1014.31 328.035L1017.34 334.489L1024.14 335.523L1019.22 340.547L1020.38 347.64L1014.31 344.291L1008.23 347.64L1009.39 340.547L1004.48 335.523L1011.27 334.489L1014.31 328.035Z" fill="white" fill-opacity="0.5"/>
</svg>
