<svg width="445" height="374" viewBox="0 0 445 374" fill="none" xmlns="http://www.w3.org/2000/svg">
<g opacity="0.3">
<path d="M123.492 157.04L116.099 145.737L92.2089 150.821L81.165 155.584L81.8196 184.775L119.65 206.392L149.38 220.752L159.4 211.918L177.996 191.548L200.18 167.846L257.63 142.781L299.492 141.726L351.726 147.174M363.434 181.107L304.928 199.579L336.615 232.034" stroke="white" stroke-opacity="0.53" stroke-width="3"/>
</g>
<path d="M132.749 114.187L129.9 118.374L131.632 123.131L126.886 121.673L122.999 124.863L122.915 119.776L118.781 116.991L123.474 115.305L124.807 110.394L127.79 114.438L132.749 114.187Z" fill="white" fill-opacity="0.51"/>
<path d="M132.422 96.9539L129.573 101.141L131.305 105.897L126.559 104.439L122.671 107.629L122.588 102.543L118.453 99.7575L123.147 98.0711L124.48 93.1594L127.464 97.2043L132.422 96.9539Z" fill="white" fill-opacity="0.51"/>
<path d="M107.701 91.6893L104.852 95.8766L106.583 100.633L101.839 99.1744L97.9503 102.365L97.867 97.2784L93.7324 94.4929L98.4264 92.8065L99.7583 87.8955L102.742 91.9401L107.701 91.6893Z" fill="white" fill-opacity="0.51"/>
<path d="M93.2766 92.3827L90.427 96.5706L92.1588 101.327L87.4135 99.8689L83.5259 103.059L83.4422 97.9718L79.308 95.1869L84.0013 93.5008L85.3335 88.5889L88.3174 92.6335L93.2766 92.3827Z" fill="white" fill-opacity="0.51"/>
<path d="M76.2607 127.098L73.4114 131.285L75.1435 136.042L70.3981 134.584L66.5099 137.774L66.4269 132.687L62.292 129.903L66.9859 128.216L68.3184 123.305L71.302 127.349L76.2607 127.098Z" fill="white" fill-opacity="0.51"/>
<path d="M100.552 169.499L97.7027 173.686L99.4351 178.442L94.6898 176.984L90.8016 180.174L90.7183 175.088L86.5841 172.303L91.2777 170.616L92.6102 165.704L95.5935 169.749L100.552 169.499Z" fill="white" fill-opacity="0.51"/>
<path d="M119.015 200.938L116.165 205.126L117.898 209.882L113.152 208.424L109.264 211.614L109.181 206.527L105.046 203.743L109.74 202.056L111.072 197.144L114.056 201.189L119.015 200.938Z" fill="white" fill-opacity="0.51"/>
<path d="M134.552 194.84L131.702 199.027L133.435 203.783L128.689 202.325L124.801 205.515L124.718 200.428L120.583 197.643L125.277 195.957L126.61 191.046L129.593 195.09L134.552 194.84Z" fill="white" fill-opacity="0.51"/>
<path d="M201.469 162.237L198.619 166.425L200.351 171.181L195.605 169.723L191.718 172.913L191.634 167.826L187.5 165.041L192.193 163.355L193.526 158.444L196.509 162.488L201.469 162.237Z" fill="white" fill-opacity="0.51"/>
<path d="M270.565 159.602L267.715 163.79L269.448 168.546L264.702 167.088L260.814 170.278L260.73 165.191L256.596 162.407L261.29 160.72L262.622 155.808L265.605 159.853L270.565 159.602Z" fill="white" fill-opacity="0.51"/>
<path d="M310.858 178.699L308.008 182.886L309.741 187.643L304.995 186.184L301.107 189.374L301.023 184.288L296.889 181.503L301.583 179.816L302.915 174.905L305.898 178.95L310.858 178.699Z" fill="white" fill-opacity="0.51"/>
<path d="M380.392 184.927L377.542 189.114L379.274 193.87L374.528 192.412L370.641 195.602L370.557 190.516L366.423 187.73L371.116 186.044L372.449 181.133L375.432 185.177L380.392 184.927Z" fill="white" fill-opacity="0.51"/>
<path d="M358.331 209.468L355.482 213.655L357.214 218.411L352.468 216.953L348.581 220.143L348.497 215.056L344.363 212.271L349.056 210.585L350.389 205.673L353.373 209.718L358.331 209.468Z" fill="white" fill-opacity="0.51"/>
<path d="M325.111 229.767L322.262 233.955L323.993 238.711L319.249 237.252L315.361 240.443L315.277 235.356L311.143 232.571L315.837 230.884L317.168 225.973L320.152 230.017L325.111 229.767Z" fill="white" fill-opacity="0.51"/>
</svg>
