<svg width="1402" height="440" viewBox="0 0 1402 440" fill="none" xmlns="http://www.w3.org/2000/svg">
<g opacity="0.3">
<path d="M106.489 249.841L99.0954 238.407L75.2057 243.55L64.1618 248.369L64.8164 277.898L102.647 299.765L132.377 314.291L142.397 305.354L160.993 284.749L183.177 260.772L240.627 235.417L282.488 234.349L334.722 239.861" stroke="white" stroke-opacity="0.53" stroke-width="3"/>
<path d="M346.43 274.186L287.925 292.872L319.612 325.703" stroke="white" stroke-opacity="0.53" stroke-width="3"/>
</g>
<path d="M115.748 206.493L112.899 210.728L114.631 215.54L109.886 214.066L105.998 217.292L105.914 212.147L101.78 209.329L106.473 207.624L107.806 202.656L110.789 206.746L115.748 206.493Z" fill="white" fill-opacity="0.51"/>
<path d="M115.421 189.06L112.572 193.296L114.305 198.107L109.558 196.632L105.67 199.859L105.587 194.714L101.452 191.897L106.146 190.191L107.479 185.222L110.463 189.314L115.421 189.06Z" fill="white" fill-opacity="0.51"/>
<path d="M90.7016 183.735L87.8517 187.971L89.5835 192.782L84.8387 191.307L80.9505 194.534L80.8672 189.389L76.7325 186.571L81.4265 184.865L82.7584 179.897L85.7423 183.989L90.7016 183.735Z" fill="white" fill-opacity="0.51"/>
<path d="M76.2758 184.436L73.4261 188.673L75.158 193.484L70.4126 192.009L66.5251 195.236L66.4414 190.09L62.3072 187.273L67.0005 185.567L68.3326 180.599L71.3165 184.69L76.2758 184.436Z" fill="white" fill-opacity="0.51"/>
<path d="M59.2599 219.554L56.4105 223.789L58.1427 228.601L53.3973 227.126L49.5091 230.353L49.426 225.207L45.2912 222.39L49.9851 220.685L51.3176 215.716L54.3012 219.807L59.2599 219.554Z" fill="white" fill-opacity="0.51"/>
<path d="M83.5521 262.445L80.7029 266.68L82.4353 271.491L77.6899 270.016L73.8018 273.243L73.7184 268.098L69.5842 265.281L74.2778 263.574L75.6103 258.606L78.5936 262.698L83.5521 262.445Z" fill="white" fill-opacity="0.51"/>
<path d="M102.014 294.249L99.1641 298.484L100.897 303.296L96.1512 301.82L92.2634 305.048L92.1804 299.902L88.0455 297.085L92.7391 295.379L94.0716 290.41L97.0548 294.502L102.014 294.249Z" fill="white" fill-opacity="0.51"/>
<path d="M117.551 288.079L114.701 292.315L116.434 297.126L111.688 295.651L107.8 298.878L107.717 293.732L103.582 290.915L108.276 289.209L109.609 284.241L112.592 288.333L117.551 288.079Z" fill="white" fill-opacity="0.51"/>
<path d="M184.468 255.099L181.618 259.336L183.35 264.147L178.605 262.672L174.717 265.899L174.633 260.753L170.499 257.936L175.192 256.23L176.525 251.262L179.509 255.353L184.468 255.099Z" fill="white" fill-opacity="0.51"/>
<path d="M253.565 252.434L250.715 256.67L252.448 261.481L247.702 260.007L243.814 263.234L243.73 258.088L239.596 255.271L244.29 253.565L245.622 248.596L248.606 252.688L253.565 252.434Z" fill="white" fill-opacity="0.51"/>
<path d="M293.857 271.751L291.007 275.987L292.74 280.799L287.994 279.323L284.106 282.55L284.022 277.405L279.888 274.587L284.582 272.882L285.914 267.913L288.898 272.005L293.857 271.751Z" fill="white" fill-opacity="0.51"/>
<path d="M363.392 278.051L360.542 282.287L362.274 287.099L357.529 285.624L353.641 288.85L353.558 283.705L349.423 280.888L354.116 279.182L355.449 274.214L358.432 278.305L363.392 278.051Z" fill="white" fill-opacity="0.51"/>
<path d="M341.33 302.876L338.481 307.112L340.213 311.923L335.468 310.448L331.58 313.675L331.497 308.53L327.362 305.712L332.055 304.006L333.388 299.038L336.372 303.13L341.33 302.876Z" fill="white" fill-opacity="0.51"/>
<path d="M308.11 323.411L305.261 327.647L306.993 332.458L302.248 330.983L298.36 334.21L298.276 329.064L294.142 326.247L298.836 324.541L300.167 319.573L303.151 323.664L308.11 323.411Z" fill="white" fill-opacity="0.51"/>
<g opacity="0.3">
<path d="M1028.31 343.718L1105.93 296.514L1126.99 239.148L1087.18 198.252L1197.32 194.463L1211.25 201.845L1219.82 223.052L1257.66 233.653L1302.29 322.456L1375.48 419.393" stroke="white" stroke-opacity="0.5" stroke-width="3"/>
<path d="M1192.26 349.984L1199.66 284.433L1257.66 233.654" stroke="white" stroke-opacity="0.5" stroke-width="3"/>
</g>
<path d="M1087.12 187.929L1090.16 194.457L1096.95 195.504L1092.04 200.585L1093.2 207.76L1087.12 204.373L1081.05 207.76L1082.21 200.585L1077.29 195.504L1084.09 194.457L1087.12 187.929Z" fill="white" fill-opacity="0.5"/>
<path d="M1197.26 184.551L1200.3 191.079L1207.09 192.126L1202.17 197.208L1203.33 204.383L1197.26 200.995L1191.18 204.383L1192.35 197.208L1187.43 192.126L1194.22 191.079L1197.26 184.551Z" fill="white" fill-opacity="0.5"/>
<path d="M1211.37 192.159L1214.41 198.688L1221.2 199.734L1216.29 204.816L1217.45 211.99L1211.37 208.604L1205.3 211.99L1206.46 204.816L1201.54 199.734L1208.33 198.688L1211.37 192.159Z" fill="white" fill-opacity="0.5"/>
<path d="M1221.2 213.037L1224.24 219.567L1231.03 220.613L1226.12 225.695L1227.28 232.869L1221.2 229.482L1215.13 232.869L1216.29 225.695L1211.37 220.613L1218.16 219.567L1221.2 213.037Z" fill="white" fill-opacity="0.5"/>
<path d="M1257.66 224.698L1260.7 231.226L1267.49 232.273L1262.58 237.354L1263.74 244.528L1257.66 241.142L1251.59 244.528L1252.75 237.354L1247.83 232.273L1254.63 231.226L1257.66 224.698Z" fill="white" fill-opacity="0.5"/>
<path d="M1199.51 275.394L1202.55 281.923L1209.34 282.97L1204.42 288.052L1205.58 295.226L1199.51 291.839L1193.43 295.226L1194.6 288.052L1189.68 282.97L1196.47 281.923L1199.51 275.394Z" fill="white" fill-opacity="0.5"/>
<path d="M1192.26 340.069L1195.29 346.598L1202.09 347.644L1197.17 352.725L1198.33 359.9L1192.26 356.512L1186.18 359.9L1187.34 352.725L1182.43 347.644L1189.22 346.598L1192.26 340.069Z" fill="white" fill-opacity="0.5"/>
<path d="M1302.21 311.854L1305.25 318.382L1312.04 319.429L1307.13 324.511L1308.29 331.686L1302.21 328.298L1296.14 331.686L1297.3 324.511L1292.38 319.429L1299.18 318.382L1302.21 311.854Z" fill="white" fill-opacity="0.5"/>
<path d="M1375.48 409.477L1378.52 416.006L1385.31 417.051L1380.39 422.133L1381.55 429.308L1375.48 425.921L1369.4 429.308L1370.56 422.133L1365.65 417.051L1372.44 416.006L1375.48 409.477Z" fill="white" fill-opacity="0.5"/>
<path d="M1126.42 228.976L1129.45 235.505L1136.25 236.551L1131.33 241.633L1132.49 248.808L1126.42 245.42L1120.34 248.808L1121.5 241.633L1116.59 236.551L1123.38 235.505L1126.42 228.976Z" fill="white" fill-opacity="0.5"/>
<path d="M1106.07 285.311L1109.11 291.839L1115.9 292.885L1110.98 297.966L1112.14 305.141L1106.07 301.754L1099.99 305.141L1101.16 297.966L1096.24 292.885L1103.03 291.839L1106.07 285.311Z" fill="white" fill-opacity="0.5"/>
<path d="M1079.33 302.427L1082.37 308.955L1089.16 310.002L1084.25 315.083L1085.41 322.258L1079.33 318.871L1073.26 322.258L1074.42 315.083L1069.5 310.002L1076.29 308.955L1079.33 302.427Z" fill="white" fill-opacity="0.5"/>
<path d="M1028.3 333.907L1031.34 340.436L1038.14 341.482L1033.22 346.564L1034.38 353.739L1028.3 350.351L1022.23 353.739L1023.39 346.564L1018.47 341.482L1025.27 340.436L1028.3 333.907Z" fill="white" fill-opacity="0.5"/>
</svg>
