<svg width="367" height="242" viewBox="0 0 367 242" fill="none" xmlns="http://www.w3.org/2000/svg">
<g opacity="0.3">
<path d="M9.83105 157.346L87.452 110.682L108.518 53.972L68.7091 13.5446L178.848 9.79834L192.775 17.0957L201.343 38.0602L239.187 48.5408L283.813 136.327L357.008 232.155" stroke="white" stroke-opacity="0.5" stroke-width="3"/>
<path d="M173.781 163.54L181.187 98.7388L239.187 48.5405" stroke="white" stroke-opacity="0.5" stroke-width="3"/>
</g>
<path d="M68.6503 3.33936L71.6884 9.7928L78.4803 10.8276L73.5643 15.8499L74.7253 22.9429L68.6503 19.5951L62.5753 22.9429L63.7354 15.8499L58.8203 10.8276L65.6123 9.7928L68.6503 3.33936Z" fill="white" fill-opacity="0.5"/>
<path d="M178.786 0L181.824 6.45344L188.616 7.48836L183.7 12.5117L184.86 19.6045L178.786 16.2557L172.71 19.6045L173.871 12.5117L168.956 7.48836L175.747 6.45344L178.786 0Z" fill="white" fill-opacity="0.5"/>
<path d="M192.897 7.521L195.935 13.9755L202.728 15.0092L197.812 20.0335L198.973 27.1255L192.897 23.7777L186.822 27.1255L187.983 20.0335L183.068 15.0092L189.859 13.9755L192.897 7.521Z" fill="white" fill-opacity="0.5"/>
<path d="M202.727 28.1602L205.766 34.6146L212.558 35.6495L207.642 40.6728L208.802 47.7647L202.727 44.4169L196.652 47.7647L197.813 40.6728L192.897 35.6495L199.689 34.6146L202.727 28.1602Z" fill="white" fill-opacity="0.5"/>
<path d="M239.189 39.687L242.227 46.1405L249.02 47.1752L244.104 52.1985L245.264 59.2905L239.189 55.9427L233.114 59.2905L234.275 52.1985L229.359 47.1752L236.151 46.1405L239.189 39.687Z" fill="white" fill-opacity="0.5"/>
<path d="M181.035 89.8037L184.073 96.2582L190.866 97.2931L185.95 102.316L187.11 109.408L181.035 106.06L174.96 109.408L176.121 102.316L171.205 97.2931L177.997 96.2582L181.035 89.8037Z" fill="white" fill-opacity="0.5"/>
<path d="M173.781 153.738L176.819 160.193L183.612 161.226L178.696 166.25L179.856 173.343L173.781 169.994L167.706 173.343L168.867 166.25L163.952 161.226L170.743 160.193L173.781 153.738Z" fill="white" fill-opacity="0.5"/>
<path d="M283.739 125.846L286.777 132.3L293.569 133.334L288.653 138.358L289.813 145.451L283.739 142.102L277.664 145.451L278.824 138.358L273.909 133.334L280.701 132.3L283.739 125.846Z" fill="white" fill-opacity="0.5"/>
<path d="M357.004 222.352L360.042 228.806L366.834 229.84L361.918 234.863L363.078 241.956L357.004 238.609L350.928 241.956L352.089 234.863L347.174 229.84L353.966 228.806L357.004 222.352Z" fill="white" fill-opacity="0.5"/>
<path d="M107.942 43.917L110.98 50.3715L117.772 51.4052L112.856 56.4285L114.017 63.5215L107.942 60.1726L101.866 63.5215L103.027 56.4285L98.1123 51.4052L104.904 50.3715L107.942 43.917Z" fill="white" fill-opacity="0.5"/>
<path d="M87.5947 99.6069L90.6327 106.06L97.4257 107.094L92.5096 112.117L93.6697 119.21L87.5947 115.861L81.5187 119.21L82.6807 112.117L77.7646 107.094L84.5568 106.06L87.5947 99.6069Z" fill="white" fill-opacity="0.5"/>
<path d="M60.8573 116.527L63.8953 122.981L70.6884 124.016L65.7723 129.038L66.9324 136.131L60.8573 132.783L54.7823 136.131L55.9434 129.038L51.0283 124.016L57.8193 122.981L60.8573 116.527Z" fill="white" fill-opacity="0.5"/>
<path d="M9.82996 147.647L12.8679 154.101L19.6609 155.136L14.745 160.159L15.9049 167.252L9.82996 163.903L3.755 167.252L4.91492 160.159L0 155.136L6.79199 154.101L9.82996 147.647Z" fill="white" fill-opacity="0.5"/>
</svg>
