<svg width="402" height="414" viewBox="0 0 402 414" fill="none" xmlns="http://www.w3.org/2000/svg">
<path fill-rule="evenodd" clip-rule="evenodd" d="M211.552 63.4469C208.248 64.6085 204.697 65.24 201 65.24C197.56 65.24 194.246 64.6932 191.14 63.6814L201.463 53.3059L211.552 63.4469ZM212.582 63.0644L202.168 52.597L201.463 51.888L200.758 52.597L190.09 63.3187C177.819 58.8372 169.049 47.0107 169.049 33.12C169.049 15.3758 183.359 1 201 1C218.641 1 232.951 15.3758 232.951 33.12C232.951 46.7556 224.501 58.4021 212.582 63.0644ZM213.349 63.8355C225.429 58.9241 233.951 47.0224 233.951 33.12C233.951 14.8283 219.198 0 201 0C182.802 0 168.049 14.8283 168.049 33.12C168.049 47.2761 176.885 59.3579 189.316 64.0974L156.43 97.152H114.584C115.07 95.2088 115.328 93.1747 115.328 91.08C115.328 77.3612 104.263 66.24 90.6148 66.24C76.9661 66.24 65.9016 77.3612 65.9016 91.08C65.9016 104.799 76.9661 115.92 90.6148 115.92C90.7983 115.92 90.9814 115.918 91.1639 115.914V162.753L62.056 192.011C56.5168 181.552 45.561 174.432 32.9508 174.432C14.7526 174.432 0 189.26 0 207.552C0 225.844 14.7526 240.672 32.9508 240.672C45.3176 240.672 56.0932 233.824 61.7292 223.695L91.1639 253.281V299.19C90.9814 299.186 90.7983 299.184 90.6148 299.184C76.9661 299.184 65.9016 310.305 65.9016 324.024C65.9016 337.743 76.9661 348.864 90.6148 348.864C104.263 348.864 115.328 337.743 115.328 324.024C115.328 321.929 115.07 319.895 114.584 317.952H155.504L187.877 350.491C176.209 355.588 168.049 367.276 168.049 380.88C168.049 399.172 182.802 414 201 414C219.198 414 233.951 399.172 233.951 380.88C233.951 367.526 226.088 356.018 214.763 350.778L247.421 317.952H294.006C293.52 319.895 293.262 321.929 293.262 324.024C293.262 337.743 304.327 348.864 317.975 348.864C331.624 348.864 342.689 337.743 342.689 324.024C342.689 310.305 331.624 299.184 317.975 299.184C315.493 299.184 313.096 299.552 310.836 300.236V254.212L340.608 224.287C346.33 234.09 356.925 240.672 369.049 240.672C387.247 240.672 402 225.844 402 207.552C402 189.26 387.247 174.432 369.049 174.432C356.682 174.432 345.907 181.28 340.271 191.409L310.836 161.823V114.868C313.096 115.552 315.493 115.92 317.975 115.92C331.624 115.92 342.689 104.799 342.689 91.08C342.689 77.3612 331.624 66.24 317.975 66.24C304.327 66.24 293.262 77.3612 293.262 91.08C293.262 93.1747 293.52 95.2088 294.006 97.152H246.496L213.349 63.8355ZM114.312 316.952H154.509L92.1639 254.286V299.232C102.684 299.886 111.423 307.156 114.312 316.952ZM92.1639 300.234C102.126 300.88 110.416 307.711 113.267 316.952H92.1639V300.234ZM91.1639 300.19V316.952V317.952H92.1639H113.552C114.058 319.89 114.328 321.925 114.328 324.024C114.328 337.195 103.706 347.864 90.6148 347.864C77.5232 347.864 66.9016 337.195 66.9016 324.024C66.9016 310.853 77.5232 300.184 90.6148 300.184C90.7983 300.184 90.9814 300.186 91.1639 300.19ZM294.262 324.024C294.262 321.925 294.532 319.89 295.038 317.952H309.836H310.836V316.952V301.284C313.089 300.569 315.488 300.184 317.975 300.184C331.067 300.184 341.689 310.853 341.689 324.024C341.689 337.195 331.067 347.864 317.975 347.864C304.884 347.864 294.262 337.195 294.262 324.024ZM309.836 316.952V301.626C302.924 304.165 297.515 309.846 295.323 316.952H309.836ZM294.278 316.952C296.537 309.293 302.371 303.179 309.836 300.563V255.217L248.416 316.952H294.278ZM294.278 98.152H247.49L309.836 160.818V114.541C302.371 111.925 296.537 105.811 294.278 98.152ZM309.836 113.478C302.924 110.939 297.515 105.258 295.323 98.152H309.836V113.478ZM310.836 113.82V98.152V97.152H309.836H295.038C294.532 95.2135 294.262 93.1785 294.262 91.08C294.262 77.9087 304.884 67.24 317.975 67.24C331.067 67.24 341.689 77.9087 341.689 91.08C341.689 104.251 331.067 114.92 317.975 114.92C315.488 114.92 313.089 114.535 310.836 113.82ZM114.328 91.08C114.328 93.1785 114.058 95.2135 113.552 97.152H92.1639H91.1639V98.152V114.914C90.9814 114.918 90.7983 114.92 90.6148 114.92C77.5232 114.92 66.9016 104.251 66.9016 91.08C66.9016 77.9087 77.5232 67.24 90.6148 67.24C103.706 67.24 114.328 77.9087 114.328 91.08ZM92.1639 98.152V114.87C102.126 114.224 110.416 107.393 113.267 98.152H92.1639ZM114.312 98.152C111.423 107.948 102.684 115.218 92.1639 115.872V161.748L155.435 98.152H114.312ZM62.223 222.774L91.1639 251.863V164.171L62.5337 192.948C64.6903 197.354 65.9016 202.311 65.9016 207.552C65.9016 213.04 64.5736 218.216 62.223 222.774ZM61.7861 193.7C63.7831 197.894 64.9016 202.591 64.9016 207.552C64.9016 212.76 63.6688 217.678 61.4808 222.028L47.5417 208.017L61.7861 193.7ZM61.3164 192.754L46.8364 207.308L46.1311 208.017L46.8364 208.726L60.9943 222.957C55.5678 232.919 45.0418 239.672 32.9508 239.672C15.3097 239.672 1 225.296 1 207.552C1 189.808 15.3097 175.432 32.9508 175.432C45.2857 175.432 55.9918 182.46 61.3164 192.754ZM213.783 350.345L246.011 317.952H156.915L188.874 350.075C192.627 348.581 196.718 347.76 201 347.76C205.533 347.76 209.853 348.68 213.783 350.345ZM189.643 350.848C193.172 349.499 197.001 348.76 201 348.76C205.252 348.76 209.31 349.595 213.021 351.111L201.463 362.729L189.643 350.848ZM188.636 351.254L200.758 363.437L201.463 364.146L202.168 363.437L214.01 351.535C225.17 356.543 232.951 367.796 232.951 380.88C232.951 398.624 218.641 413 201 413C183.359 413 169.049 398.624 169.049 380.88C169.049 367.545 177.131 356.112 188.636 351.254ZM369.049 239.672C357.201 239.672 346.855 233.187 341.338 223.553L356.089 208.726L356.794 208.017L356.089 207.308L341.006 192.147C346.432 182.185 356.958 175.432 369.049 175.432C386.69 175.432 401 189.808 401 207.552C401 225.296 386.69 239.672 369.049 239.672ZM355.384 208.017L340.519 193.076C338.331 197.426 337.098 202.344 337.098 207.552C337.098 213.006 338.45 218.142 340.836 222.64L355.384 208.017ZM336.098 207.552C336.098 202.064 337.426 196.888 339.777 192.33L310.836 163.241V252.794L340.098 223.381C337.548 218.678 336.098 213.285 336.098 207.552ZM212.331 64.2298C208.798 65.5303 204.981 66.24 201 66.24C197.274 66.24 193.693 65.6184 190.353 64.4729L157.841 97.152H245.085L212.331 64.2298ZM156.846 98.152L92.1639 163.166V252.869L155.92 316.952H247.006L309.836 253.799V162.236L246.08 98.152H156.846ZM201 239.672C218.641 239.672 232.951 225.296 232.951 207.552C232.951 189.808 218.641 175.432 201 175.432C183.359 175.432 169.049 189.808 169.049 207.552C169.049 225.296 183.359 239.672 201 239.672ZM201 240.672C219.198 240.672 233.951 225.844 233.951 207.552C233.951 189.26 219.198 174.432 201 174.432C182.802 174.432 168.049 189.26 168.049 207.552C168.049 225.844 182.802 240.672 201 240.672Z" fill="#0C51D6"/>
</svg>
